HIERARCHY
ROOT Hips
{
    OFFSET 0.0 0.0 0.0
    CHANNELS 6 Xposition Yposition Zposition Zrotation Xrotation Yrotation
    JOINT Spine
    {
        OFFSET 0.0 5.0 0.0
        CHANNELS 3 Zrotation Xrotation Yrotation
        JOINT Chest
        {
            OFFSET 0.0 5.0 0.0
            CHANNELS 3 Zrotation Xrotation Yrotation
            JOINT Neck
            {
                OFFSET 0.0 8.0 0.0
                CHANNELS 3 Zrotation Xrotation Yrotation
                JOINT Head
                {
                    OFFSET 0.0 5.0 0.0
                    CHANNELS 3 Zrotation Xrotation Yrotation
                    End Site
                    {
                        OFFSET 0.0 3.0 0.0
                    }
                }
            }
            JOINT LeftShoulder
            {
                OFFSET -5.0 0.0 0.0
                CHANNELS 3 Zrotation Xrotation Yrotation
                JOINT LeftArm
                {
                    OFFSET 0.0 -10.0 0.0
                    CHANNELS 3 Zrotation Xrotation Yrotation
                    JOINT LeftForeArm
                    {
                        OFFSET 0.0 -10.0 0.0
                        CHANNELS 3 Zrotation Xrotation Yrotation
                        End Site
                        {
                            OFFSET 0.0 -3.0 0.0
                        }
                    }
                }
            }
        }
    }
}

MOTION
Frames: 26
Frame Time: 0.033333
970.000000 442.938926 142.895501 0.000000 0.000000 0.000000 0.000000 0.000000 0.000000 29.678605 -18.618406 0.000000 180.000000 14.331859 0.000000 29.744881 12.588841 -0.000000 150.255119 14.862233 30.000000 19.983107 -4.455566 0.000000 18.000000 0.505733 0.000000
1354.522934 467.411410 121.464322 0.000000 0.000000 0.000000 0.000000 0.000000 0.000000 150.622570 13.002294 4.973798 -29.377430 -6.405879 4.973798 140.176400 4.597948 3.759997 -12.221629 -7.662870 29.763441 132.794256 2.786973 -3.759997 -2.626015 0.228619 0.313953
969.997807 442.887864 94.827955 0.000000 0.000000 0.000000 0.000000 0.000000 0.000000 31.061399 -16.743189 9.635073 180.000000 1.121363 9.635073 30.285790 -6.284730 7.460697 149.714210 8.741432 29.057495 19.151579 -6.507646 -7.460697 18.000000 0.795351 0.626666
1246.736984 514.278152 122.753859 0.000000 0.000000 0.000000 0.000000 0.000000 0.000000 143.557092 -1.505075 13.690942 -36.442908 -5.235795 13.690942 133.761037 1.263957 11.043737 -156.950665 -5.946026 27.893295 0.000000 0.000000 0.000000 1.928484 0.450819 0.936907
1245.221100 458.637464 111.505106 0.000000 0.000000 0.000000 0.000000 0.000000 0.000000 160.701064 -6.520686 16.886559 -19.298936 17.723209 16.886559 140.193827 0.448476 14.452610 -157.554825 -5.055431 26.289200 29.500467 5.446384 -14.452610 -15.049953 -0.544638 1.243449
1257.365570 418.514181 127.151005 0.000000 0.000000 0.000000 0.000000 0.000000 0.000000 -143.710676 -1.359009 19.021130 36.289324 -0.757670 19.021130 163.220413 -4.880864 17.633558 11.688054 -0.466077 24.270510 152.038385 -0.406503 -17.633558 -2.339948 -0.091811 1.545085
1275.099564 408.163741 107.497951 0.000000 0.000000 0.000000 0.000000 0.000000 0.000000 -132.929531 9.394320 19.960535 47.070469 -19.013826 19.960535 173.491912 5.027584 20.536413 -160.709681 -5.508917 21.869059 33.138793 4.933751 -20.536413 -14.686121 -0.493375 1.840623
1290.611115 384.880857 102.095183 0.000000 0.000000 0.000000 0.000000 0.000000 0.000000 -132.705235 -0.988322 19.645745 47.294765 -9.215013 19.645745 -173.778854 5.476373 23.115397 20.496835 -2.569251 19.122720 -161.220290 -3.748260 -23.115397 1.723235 0.358421 2.128896
1302.817154 380.305352 86.836902 0.000000 0.000000 0.000000 0.000000 0.000000 0.000000 -131.493915 -0.711036 18.096541 48.506085 4.857998 18.096541 -165.393697 -3.819149 25.329838 23.154815 0.508019 16.074804 -178.200316 0.510439 -25.329838 0.138141 -0.020716 2.408768
1304.997711 379.563582 101.592127 0.000000 0.000000 0.000000 0.000000 0.000000 0.000000 -126.727972 -2.483683 15.410265 53.272028 -3.226486 15.410265 -160.219593 3.516629 27.144812 28.448880 3.761086 12.773379 -174.368770 -3.051149 -27.144812 0.079526 0.087322 2.679134
1311.668472 386.890390 66.497145 0.000000 0.000000 0.000000 0.000000 0.000000 0.000000 -122.308728 -9.677041 11.755705 57.691272 -6.038247 11.755705 -158.801130 4.121222 28.531695 150.942637 6.458278 9.270510 -154.878332 -4.955188 -28.531695 2.695409 0.509765 2.938926
1305.131836 395.180186 75.932065 0.000000 0.000000 0.000000 0.000000 0.000000 0.000000 -125.112810 13.497073 7.362491 54.887190 -24.286855 7.362491 -146.487292 6.043221 29.468618 -175.167369 -7.997859 5.621439 -159.224034 -4.109705 -29.468618 1.782042 0.513937 3.187120
1296.320457 392.734526 76.930255 0.000000 0.000000 0.000000 0.000000 0.000000 0.000000 -131.035750 -13.856620 2.506665 48.964250 2.042066 2.506665 -128.969563 3.258416 29.940802 38.856147 2.732727 1.883716 -134.776850 0.211679 -29.940802 3.458429 0.311567 3.422736
1306.963577 386.612041 62.508384 0.000000 0.000000 0.000000 0.000000 0.000000 0.000000 -124.469622 1.375278 -2.506665 55.530378 2.662987 -2.506665 -109.994856 -0.071314 29.940802 37.691309 -6.196965 -1.883716 -118.274788 5.838850 -29.940802 5.098336 -0.240339 3.644843
969.892723 442.572198 58.061109 0.000000 0.000000 0.000000 0.000000 0.000000 0.000000 41.287575 32.645276 -7.362491 180.000000 -9.489160 -7.362491 30.974696 -8.165454 29.468618 149.025304 -26.873960 -5.621439 15.072869 8.571902 -29.468618 18.000000 -0.504236 3.852566
969.876883 442.545207 73.866316 0.000000 0.000000 0.000000 0.000000 0.000000 0.000000 42.241956 23.048724 -11.755705 180.000000 20.837738 -11.755705 30.826133 -20.981203 28.531695 149.173867 -9.724908 -9.270510 14.823070 4.061929 -28.531695 18.000000 0.205421 4.045085
969.859960 442.518116 46.387684 0.000000 0.000000 0.000000 0.000000 0.000000 0.000000 43.199779 21.925028 -15.410265 180.000000 4.358225 -15.410265 30.649504 -7.433854 27.144812 149.350496 -21.609501 -12.773379 14.587557 4.094817 -27.144812 18.000000 0.197540 4.221640
969.841956 442.490926 49.882977 0.000000 0.000000 0.000000 0.000000 0.000000 0.000000 44.157210 -32.479055 -18.096541 180.000000 4.363182 -18.096541 30.446417 7.346966 25.329838 149.553583 -4.100593 -16.074804 14.366154 4.862598 -25.329838 18.000000 -0.173533 4.381533
969.822873 442.463637 41.324592 0.000000 0.000000 0.000000 0.000000 0.000000 0.000000 45.110117 -19.823929 -19.645745 180.000000 9.691254 -19.645745 30.218633 -11.916040 23.115397 149.781367 -3.707899 -19.122720 14.158653 3.635330 -23.115397 18.000000 0.006289 4.524135
969.802712 442.436251 53.224461 0.000000 0.000000 0.000000 0.000000 0.000000 0.000000 46.054109 -23.341284 -19.960535 180.000000 6.018852 -19.960535 29.968037 -4.061113 20.536413 150.031963 0.817344 -21.869059 13.964823 -5.004212 -20.536413 18.000000 0.569165 4.648882
1187.040939 541.658249 58.358803 0.000000 0.000000 0.000000 0.000000 0.000000 0.000000 82.806623 7.566271 -19.021130 -97.193377 -18.521244 -19.021130 45.395981 10.873849 17.633558 -156.144455 -1.946164 -24.270510 0.000000 0.000000 0.000000 0.000000 0.000000 0.000000
1182.242889 522.024286 56.375293 0.000000 0.000000 0.000000 0.000000 0.000000 0.000000 -105.721938 0.073859 -16.886559 74.278062 -3.571441 -16.886559 -155.708006 -1.975376 14.452610 -157.302521 -2.150471 -26.289200 0.000000 0.000000 0.000000 2.684983 0.202702 4.842916
1180.914459 527.065626 46.905224 0.000000 0.000000 0.000000 0.000000 0.000000 0.000000 88.055617 -1.886836 -13.690942 -91.944383 3.615620 -13.690942 -158.862018 -3.062316 11.043737 -151.747289 -2.391011 -27.893295 0.000000 0.000000 0.000000 0.000000 0.000000 0.000000
1236.800194 541.387432 40.827380 0.000000 0.000000 0.000000 0.000000 0.000000 0.000000 -85.588400 8.398083 -9.635073 94.411600 -14.727430 -9.635073 -159.297106 14.248147 7.460697 -157.915391 -2.571509 -29.057495 26.607362 2.492751 -7.460697 14.926890 -0.490965 4.960574
1161.066513 575.006626 59.046868 0.000000 0.000000 0.000000 0.000000 0.000000 0.000000 -81.021168 -0.987850 -4.973798 98.978832 6.950852 -4.973798 -102.851701 -1.844636 3.759997 -157.041007 -2.528951 -29.763441 21.429890 2.725370 -3.759997 10.859432 -0.087248 4.990134
1255.636253 512.645942 59.311226 0.000000 0.000000 0.000000 0.000000 0.000000 0.000000 77.832564 4.879299 -0.000000 -102.167436 -2.405855 -0.000000 -158.264834 -2.543159 0.000000 -130.745502 -2.617130 -30.000000 -157.699225 -2.599240 -0.000000 0.000000 0.000000 0.000000
